REM DIRINDEX 1\2,1\3,1\4,1\5
REM DIRNAME cjc004,folder01,folder02,folder03,folder04
TITLE ""
FILE "1Q_t_1991-2000.mp3" MP3
  TRACK 01 AUDIO
    TITLE "3:cjc004_6881"
    INDEX 01 00:00:00
  TRACK 02 AUDIO
    TITLE "0:"
    INDEX 01 00:01:15
  TRACK 03 AUDIO
    TITLE "4:cjc004_6882"
    INDEX 01 00:01:40
  TRACK 04 AUDIO
    TITLE "0:"
    INDEX 01 00:02:57
  TRACK 05 AUDIO
    TITLE "5:cjc004_6883"
    INDEX 01 00:03:10
  TRACK 06 AUDIO
    TITLE "0:"
    INDEX 01 00:07:60
  TRACK 07 AUDIO
    TITLE "3:cjc004_6884"
    INDEX 01 00:08:34
  TRACK 08 AUDIO
    TITLE "0:"
    INDEX 01 00:09:47
  TRACK 09 AUDIO
    TITLE "4:cjc004_6885"
    INDEX 01 00:09:71
  TRACK 10 AUDIO
    TITLE "0:"
    INDEX 01 00:11:33
  TRACK 11 AUDIO
    TITLE "5:cjc004_6886"
    INDEX 01 00:11:58
  TRACK 12 AUDIO
    TITLE "0:"
    INDEX 01 00:15:64
  TRACK 13 AUDIO
    TITLE "3:cjc004_6887"
    INDEX 01 00:16:40
  TRACK 14 AUDIO
    TITLE "0:"
    INDEX 01 00:17:61
  TRACK 15 AUDIO
    TITLE "4:cjc004_6888"
    INDEX 01 00:18:11
  TRACK 16 AUDIO
    TITLE "0:"
    INDEX 01 00:19:26
  TRACK 17 AUDIO
    TITLE "5:cjc004_6889"
    INDEX 01 00:19:50
  TRACK 18 AUDIO
    TITLE "0:"
    INDEX 01 00:25:19
  TRACK 19 AUDIO
    TITLE "3:cjc004_6890"
    INDEX 01 00:25:64
  TRACK 20 AUDIO
    TITLE "0:"
    INDEX 01 00:27:08
  TRACK 21 AUDIO
    TITLE "4:cjc004_6891"
    INDEX 01 00:27:32
  TRACK 22 AUDIO
    TITLE "0:"
    INDEX 01 00:28:66
  TRACK 23 AUDIO
    TITLE "5:cjc004_6892"
    INDEX 01 00:29:13
  TRACK 24 AUDIO
    TITLE "0:"
    INDEX 01 00:32:52
  TRACK 25 AUDIO
    TITLE "3:cjc004_6893"
    INDEX 01 00:33:28
  TRACK 26 AUDIO
    TITLE "0:"
    INDEX 01 00:34:53
  TRACK 27 AUDIO
    TITLE "4:cjc004_6894"
    INDEX 01 00:35:02
  TRACK 28 AUDIO
    TITLE "0:"
    INDEX 01 00:36:36
  TRACK 29 AUDIO
    TITLE "5:cjc004_6895"
    INDEX 01 00:36:60
  TRACK 30 AUDIO
    TITLE "0:"
    INDEX 01 00:41:06
  TRACK 31 AUDIO
    TITLE "3:cjc004_6896"
    INDEX 01 00:41:57
  TRACK 32 AUDIO
    TITLE "0:"
    INDEX 01 00:43:13
  TRACK 33 AUDIO
    TITLE "4:cjc004_6897"
    INDEX 01 00:43:35
  TRACK 34 AUDIO
    TITLE "0:"
    INDEX 01 00:44:61
  TRACK 35 AUDIO
    TITLE "5:cjc004_6898"
    INDEX 01 00:45:12
  TRACK 36 AUDIO
    TITLE "0:"
    INDEX 01 00:50:03
  TRACK 37 AUDIO
    TITLE "3:cjc004_6899"
    INDEX 01 00:50:60
  TRACK 38 AUDIO
    TITLE "0:"
    INDEX 01 00:51:65
  TRACK 39 AUDIO
    TITLE "4:cjc004_6900"
    INDEX 01 00:52:20
  TRACK 40 AUDIO
    TITLE "0:"
    INDEX 01 00:53:68
  TRACK 41 AUDIO
    TITLE "5:cjc004_6901"
    INDEX 01 00:54:21
  TRACK 42 AUDIO
    TITLE "0:"
    INDEX 01 00:58:71
  TRACK 43 AUDIO
    TITLE "3:cjc004_6902"
    INDEX 01 00:59:53
  TRACK 44 AUDIO
    TITLE "0:"
    INDEX 01 01:00:62
  TRACK 45 AUDIO
    TITLE "4:cjc004_6903"
    INDEX 01 01:01:21
  TRACK 46 AUDIO
    TITLE "0:"
    INDEX 01 01:02:30
  TRACK 47 AUDIO
    TITLE "5:cjc004_6904"
    INDEX 01 01:02:65
  TRACK 48 AUDIO
    TITLE "0:"
    INDEX 01 01:08:19
  TRACK 49 AUDIO
    TITLE "3:cjc004_6905"
    INDEX 01 01:08:74
  TRACK 50 AUDIO
    TITLE "0:"
    INDEX 01 01:10:24
  TRACK 51 AUDIO
    TITLE "4:cjc004_6906"
    INDEX 01 01:10:59
  TRACK 52 AUDIO
    TITLE "0:"
    INDEX 01 01:12:01
  TRACK 53 AUDIO
    TITLE "5:cjc004_6907"
    INDEX 01 01:12:40
  TRACK 54 AUDIO
    TITLE "0:"
    INDEX 01 01:17:71
  TRACK 55 AUDIO
    TITLE "3:cjc004_6908"
    INDEX 01 01:18:53
  TRACK 56 AUDIO
    TITLE "0:"
    INDEX 01 01:19:60
  TRACK 57 AUDIO
    TITLE "4:cjc004_6909"
    INDEX 01 01:20:10
  TRACK 58 AUDIO
    TITLE "0:"
    INDEX 01 01:21:25
  TRACK 59 AUDIO
    TITLE "5:cjc004_6910"
    INDEX 01 01:21:51
  TRACK 60 AUDIO
    TITLE "0:"
    INDEX 01 01:25:72
